solid OpenSCAD_Model
  facet normal -1 0 0
    outer loop
      vertex -2.5 -5 -5
      vertex -2.5 -5 5
      vertex -2.5 5 -5
    endloop
  endfacet
  facet normal -1 0 0
    outer loop
      vertex -2.5 5 -5
      vertex -2.5 -5 5
      vertex -2.5 -0.773503 5
    endloop
  endfacet
  facet normal 0 -1 0
    outer loop
      vertex -2.5 -5 5
      vertex -2.5 -5 -5
      vertex 2.5 -5 -5
    endloop
  endfacet
  facet normal 0 -1 0
    outer loop
      vertex 2.5 -5 5
      vertex -2.5 -5 5
      vertex 2.5 -5 -5
    endloop
  endfacet
  facet normal 0 0 -1
    outer loop
      vertex -2.5 -5 -5
      vertex -2.5 5 -5
      vertex 2.5 -5 -5
    endloop
  endfacet
  facet normal 0 0 -1
    outer loop
      vertex 2.5 -5 -5
      vertex -2.5 5 -5
      vertex 2.5 5 -5
    endloop
  endfacet
  facet normal 0 0.866025 0.5
    outer loop
      vertex 2.5 5 -5
      vertex -2.5 5 -5
      vertex 2.5 -0.773503 5
    endloop
  endfacet
  facet normal 0 0.866025 0.5
    outer loop
      vertex 2.5 -0.773503 5
      vertex -2.5 5 -5
      vertex -2.5 -0.773503 5
    endloop
  endfacet
  facet normal 0 0 1
    outer loop
      vertex -2.5 -0.773503 5
      vertex -2.5 -5 5
      vertex 2.5 -5 5
    endloop
  endfacet
  facet normal 0 0 1
    outer loop
      vertex 2.5 -0.773503 5
      vertex -2.5 -0.773503 5
      vertex 2.5 -5 5
    endloop
  endfacet
  facet normal 1 0 0
    outer loop
      vertex 2.5 -5 5
      vertex 2.5 -5 -5
      vertex 2.5 5 -5
    endloop
  endfacet
  facet normal 1 0 0
    outer loop
      vertex 2.5 -0.773503 5
      vertex 2.5 -5 5
      vertex 2.5 5 -5
    endloop
  endfacet
endsolid OpenSCAD_Model
